<svg width="32" height="32" viewBox="0 0 32 32" fill="none" xmlns="http://www.w3.org/2000/svg">
<circle cx="16" cy="16" r="16" fill="white"/>
<path d="M15.7868 15.5037V10.8014H12.2836V15.5037C12.2836 16.5007 11.9198 17.4035 9.85835 17.4035C7.79688 17.4035 7.43309 16.5142 7.43309 15.5037V10.8014H3.92993V15.5037C3.92993 18.7913 5.70846 20.3677 9.85835 20.3677C13.9948 20.3677 15.7868 18.7778 15.7868 15.5037Z" fill="black"/>
<path d="M16.4706 16.9049C16.4706 19.7075 18.6264 20.3677 22.4934 20.3677C26.3603 20.3677 28.5161 19.7075 28.5161 17.107C28.5161 14.6414 26.2121 14.3854 22.4934 14.2372C20.4454 14.1563 20.1085 14.1698 20.1085 13.806C20.1085 13.4422 20.4454 13.3614 22.0892 13.3614C23.8003 13.3614 24.6087 13.4692 24.6087 13.9677H28.1119C28.1119 11.5559 26.0369 10.6666 22.3586 10.6666C18.6399 10.6666 16.6054 11.5559 16.6054 13.6308C16.6054 15.827 18.2357 16.5277 22.4934 16.6624C24.7031 16.7298 25.013 16.7837 25.013 17.1879C25.013 17.5382 24.7031 17.6729 22.6281 17.6729C20.4049 17.6729 19.9738 17.363 19.9738 16.9049H16.4706Z" fill="black"/>
</svg>
